<svg xmlns="http://www.w3.org/2000/svg" id="Layer_1" data-name="Layer 1" viewBox="0 0 937.96 300.33" data-arp-injected="true"><defs><style>.cls-1{fill:#202d3a;}.cls-2{fill:#ef2525;}.cls-3{fill:#fff;}</style></defs><title>logo</title><path class="cls-1" d="M374.62,138.89q-4.92-1.08-10.8-2.89a22.12,22.12,0,0,0-5.4-1.43l1-21.72h7.68l2,15.59a17.75,17.75,0,0,0,6.66,3.43,32.69,32.69,0,0,0,10.14,1.5q9.12,0,13.86-4.08T404.5,118a12.85,12.85,0,0,0-2.58-8,22.32,22.32,0,0,0-6.84-5.75q-4.26-2.4-11.7-5.64a93.91,93.91,0,0,1-11.7-6.13A29.82,29.82,0,0,1,363,84.11a21.29,21.29,0,0,1-3.66-12.54,20.57,20.57,0,0,1,3.54-11.82,23.7,23.7,0,0,1,10.2-8.22,37.53,37.53,0,0,1,15.54-3,50.93,50.93,0,0,1,9.78.84q4.26.84,9.66,2.28a22.33,22.33,0,0,0,4.08,1.08l-.72,20.16h-7.32l-2.4-14.76q-1.2-1.2-5-2.28a29.83,29.83,0,0,0-8.22-1.08q-8.28,0-12.54,3.48t-4.26,10.08a12.5,12.5,0,0,0,2.58,8,23.32,23.32,0,0,0,6.42,5.52q3.84,2.28,12.24,6.24,7.8,3.72,12.72,6.72a29.11,29.11,0,0,1,8.46,7.86,19.11,19.11,0,0,1,3.54,11.58,23.4,23.4,0,0,1-3.54,12.24,26.4,26.4,0,0,1-10.8,9.66Q396.1,140,385.78,140A52.32,52.32,0,0,1,374.62,138.89Z"/><path class="cls-1" d="M427.54,132.77l7.32-1.08V81.29l-8.64-2.16V72.65l17.16-2.17,2.16,1.57.72,4.8-.12,3.84a41.76,41.76,0,0,1,11.46-7,33,33,0,0,1,13-3.19q6.48,0,10.44,2.17a13.76,13.76,0,0,1,6,6.72,40.51,40.51,0,0,1,10.74-6.06,34.26,34.26,0,0,1,12.9-2.83q7.44,0,11.64,2.83a15.22,15.22,0,0,1,5.94,8.76Q530,88,530,98v33.73l8.64,1.08v5.88H510.1v-5.88l7.44-1.08V98.33a48.15,48.15,0,0,0-1-11.1,10.31,10.31,0,0,0-3.84-6.18c-1.88-1.36-4.58-2-8.1-2a23.08,23.08,0,0,0-8.4,1.75,30.71,30.71,0,0,0-7.56,4.14,62.66,62.66,0,0,1,1.08,13.32v33.48l8.52,1.08v5.88h-29v-5.88l7.92-1.08V98.09a53.39,53.39,0,0,0-.9-11.17A10.14,10.14,0,0,0,472.78,81c-1.68-1.31-4.24-2-7.68-2a22.68,22.68,0,0,0-9.18,2.17,38.48,38.48,0,0,0-8.46,5v45.48l8,1.08v5.88h-28Z"/><path class="cls-1" d="M558.34,104q11.28-5.34,28.56-5.7V95a26.34,26.34,0,0,0-1.2-8.87,8.34,8.34,0,0,0-4.14-4.74q-2.94-1.5-8.34-1.5a32.43,32.43,0,0,0-11,1.74,75.61,75.61,0,0,0-9.66,4.26l-3-6.24a33.72,33.72,0,0,1,5.76-3.48,58.6,58.6,0,0,1,9.72-3.84,37.74,37.74,0,0,1,11-1.68q8.52,0,13.5,2.33a14,14,0,0,1,7.14,7.5c1.44,3.45,2.16,8,2.16,13.81v38.52H606v5.28c-1.6.4-3.62.79-6.06,1.2a41.52,41.52,0,0,1-6.42.6c-2.24,0-3.76-.35-4.56-1s-1.2-2.18-1.2-4.5v-4a41.56,41.56,0,0,1-8.82,6.59,23.29,23.29,0,0,1-11.82,3q-8.64,0-14.34-5t-5.7-14.33Q547.06,109.37,558.34,104Zm21.12,25.86a38.57,38.57,0,0,0,7.44-4.56V104.69q-13.08,0-19.74,4t-6.66,10.5q0,6.48,3.18,9.54a11.85,11.85,0,0,0,8.58,3.06A17.32,17.32,0,0,0,579.46,129.89Z"/><path class="cls-1" d="M623.14,49.13l-9.72-1.32V42.65l19.32-2.28H633l2.64,1.8v89.64l10.2,1v5.88h-32.4v-5.88l9.72-1.08Z"/><path class="cls-1" d="M663.1,49.13l-9.72-1.32V42.65l19.32-2.28h.24l2.64,1.8v89.64l10.2,1v5.88h-32.4v-5.88l9.72-1.08Z"/><path class="cls-1" d="M740.2,134.27a36.21,36.21,0,0,1-14.1-16q-4.8-10.32-4.8-24.25a48.74,48.74,0,0,1,5.64-23.75,40.6,40.6,0,0,1,15.48-16,43.24,43.24,0,0,1,22.08-5.7,104.74,104.74,0,0,1,22.2,2.87l4,.73-1.2,21.6h-8l-3-15.25A14.77,14.77,0,0,0,772.6,56a43,43,0,0,0-10.14-1,22.62,22.62,0,0,0-13.68,4.39q-6,4.38-9.42,12.9t-3.42,20.4a66.2,66.2,0,0,0,3,20.52,32.65,32.65,0,0,0,9.12,14.69,21.85,21.85,0,0,0,15.12,5.47,34.51,34.51,0,0,0,9.78-1.08,16.57,16.57,0,0,0,5.82-3.12l5-11.77,7.56,1-2.88,17a33,33,0,0,0-7.44,1.69,84.86,84.86,0,0,1-8.34,2.1,54.84,54.84,0,0,1-10,.77Q749.5,140,740.2,134.27Z"/><path class="cls-1" d="M812.38,104q11.28-5.34,28.56-5.7V95a26.34,26.34,0,0,0-1.2-8.87,8.34,8.34,0,0,0-4.14-4.74q-2.94-1.5-8.34-1.5a32.43,32.43,0,0,0-11,1.74,75.61,75.61,0,0,0-9.66,4.26l-3-6.24a33.72,33.72,0,0,1,5.76-3.48,58.6,58.6,0,0,1,9.72-3.84,37.74,37.74,0,0,1,11-1.68q8.52,0,13.5,2.33a14,14,0,0,1,7.14,7.5c1.44,3.45,2.16,8,2.16,13.81v38.52H860v5.28c-1.6.4-3.62.79-6.06,1.2a41.52,41.52,0,0,1-6.42.6c-2.24,0-3.76-.35-4.56-1s-1.2-2.18-1.2-4.5v-4A41.56,41.56,0,0,1,833,137a23.29,23.29,0,0,1-11.82,3q-8.64,0-14.34-5t-5.7-14.33Q801.1,109.37,812.38,104Zm21.12,25.86a38.57,38.57,0,0,0,7.44-4.56V104.69q-13.08,0-19.74,4t-6.66,10.5q0,6.48,3.18,9.54a11.85,11.85,0,0,0,8.58,3.06A17.32,17.32,0,0,0,833.5,129.89Z"/><path class="cls-1" d="M929.14,121.67a32.65,32.65,0,0,1-12,13.38A33.46,33.46,0,0,1,898.9,140a44.31,44.31,0,0,1-6.24-.48,29.19,29.19,0,0,1-5.4-1.19l.36,10.08v12.11l12.48,1.33v5.88H866.62v-5.88l8.64-1.33V81.29l-8.76-2.16V72.65l17-2.17h.24l2.52,2.17v7.08A31.63,31.63,0,0,1,895.24,73a25.73,25.73,0,0,1,11.94-2.75,25.29,25.29,0,0,1,13,3.48,24.66,24.66,0,0,1,9.54,10.8q3.6,7.32,3.6,18.47A41.39,41.39,0,0,1,929.14,121.67Zm-35.4-41.1a21,21,0,0,0-6.12,4.2V130c.56,1,2,1.83,4.26,2.59a23.6,23.6,0,0,0,7.5,1.14,18,18,0,0,0,14.94-7.33q5.7-7.31,5.7-22.07,0-13-5-19.33a15.54,15.54,0,0,0-12.78-6.35A19.27,19.27,0,0,0,893.74,80.57Z"/><path class="cls-1" d="M373.84,254.26a36.13,36.13,0,0,1-14.1-16q-4.8-10.32-4.8-24.25a48.74,48.74,0,0,1,5.64-23.75,40.6,40.6,0,0,1,15.48-16,43.24,43.24,0,0,1,22.08-5.7,104.74,104.74,0,0,1,22.2,2.87l4,.73-1.2,21.59h-8l-3-15.24a14.76,14.76,0,0,0-5.82-2.46,43.61,43.61,0,0,0-10.14-1,22.68,22.68,0,0,0-13.68,4.38q-6,4.4-9.42,12.91t-3.42,20.39a66.22,66.22,0,0,0,3,20.53,32.65,32.65,0,0,0,9.12,14.69,21.85,21.85,0,0,0,15.12,5.47,34.51,34.51,0,0,0,9.78-1.08,16.73,16.73,0,0,0,5.82-3.12l5-11.77,7.56,1-2.88,17a33,33,0,0,0-7.44,1.69,82,82,0,0,1-8.34,2.09,53.86,53.86,0,0,1-10,.78Q383.14,260,373.84,254.26Z"/><path class="cls-1" d="M446,224q11.28-5.33,28.56-5.69V215a26.34,26.34,0,0,0-1.2-8.87,8.39,8.39,0,0,0-4.14-4.75,18.86,18.86,0,0,0-8.34-1.5,32.43,32.43,0,0,0-11,1.75,77,77,0,0,0-9.66,4.25l-3-6.24a33.85,33.85,0,0,1,5.76-3.47,57.74,57.74,0,0,1,9.72-3.84,37.76,37.76,0,0,1,11-1.69q8.52,0,13.5,2.34a14,14,0,0,1,7.14,7.5c1.44,3.45,2.16,8,2.16,13.81v38.51h7.08v5.29c-1.6.4-3.62.79-6.06,1.2a41.39,41.39,0,0,1-6.42.59c-2.24,0-3.76-.34-4.56-1s-1.2-2.18-1.2-4.5v-4A41.9,41.9,0,0,1,466.6,257a23.29,23.29,0,0,1-11.82,3q-8.64,0-14.34-5t-5.7-14.34Q434.74,229.38,446,224Zm21.12,25.86a38,38,0,0,0,7.44-4.55V224.68q-13.08,0-19.74,4c-4.44,2.68-6.66,6.17-6.66,10.5s1.06,7.5,3.18,9.54a11.85,11.85,0,0,0,8.58,3.05A17.16,17.16,0,0,0,467.14,249.88Z"/><path class="cls-1" d="M509.26,201.29l-8.64-2.16v-6.49l17.16-2.16h.36l2.52,2.16v5l-.12,2.88a44,44,0,0,1,11.4-7,33.77,33.77,0,0,1,13.56-3.12q7.56,0,11.7,2.89a15.33,15.33,0,0,1,5.82,8.81q1.68,5.94,1.68,16V251.8l8.4.84v6H544.66v-5.88l7.44-1V218.09a50.29,50.29,0,0,0-1-11.11,10.14,10.14,0,0,0-3.6-6c-1.76-1.31-4.32-2-7.68-2a22.92,22.92,0,0,0-9.24,2.17,43.55,43.55,0,0,0-8.76,5v45.47l8.16,1.08v5.88H501.7v-5.88l7.56-1.08Z"/><path class="cls-1" d="M593,224q11.28-5.33,28.56-5.69V215a26.34,26.34,0,0,0-1.2-8.87,8.39,8.39,0,0,0-4.14-4.75,18.86,18.86,0,0,0-8.34-1.5,32.43,32.43,0,0,0-11,1.75,77,77,0,0,0-9.66,4.25l-3-6.24a33.85,33.85,0,0,1,5.76-3.47,57.74,57.74,0,0,1,9.72-3.84,37.76,37.76,0,0,1,11-1.69q8.52,0,13.5,2.34a14,14,0,0,1,7.14,7.5c1.44,3.45,2.16,8,2.16,13.81v38.51h7.08v5.29c-1.6.4-3.62.79-6.06,1.2a41.39,41.39,0,0,1-6.42.59c-2.24,0-3.76-.34-4.56-1s-1.2-2.18-1.2-4.5v-4A41.9,41.9,0,0,1,613.6,257a23.29,23.29,0,0,1-11.82,3q-8.64,0-14.34-5t-5.7-14.34Q581.74,229.38,593,224Zm21.12,25.86a38,38,0,0,0,7.44-4.55V224.68q-13.08,0-19.74,4c-4.44,2.68-6.66,6.17-6.66,10.5s1.06,7.5,3.18,9.54a11.85,11.85,0,0,0,8.58,3.05A17.16,17.16,0,0,0,614.14,249.88Z"/><path class="cls-1" d="M661.78,256.37a24.9,24.9,0,0,1-9.54-11q-3.54-7.44-3.54-18.37a41,41,0,0,1,4.2-18.59A32.22,32.22,0,0,1,665,195.1a34.62,34.62,0,0,1,18.54-4.85,44.5,44.5,0,0,1,11.16,1.31V169.13l-12.24-1.44v-5.16l21.6-2.16h.36l2.64,1.92v90.23h7v5.53c-2.56.56-4.78,1-6.66,1.32a36.48,36.48,0,0,1-5.94.47q-3.12,0-4.44-1.08c-.88-.71-1.32-2.23-1.32-4.55v-3.84a27,27,0,0,1-8.82,6.84A26,26,0,0,1,675,260,25.26,25.26,0,0,1,661.78,256.37Zm26.76-7a17,17,0,0,0,6.12-4.86V200.56c-.64-1-2.14-1.81-4.5-2.58a24.62,24.62,0,0,0-7.5-1.14A18,18,0,0,0,667.72,204q-5.58,7.16-5.58,22,0,13,4.92,19.21a15.46,15.46,0,0,0,12.72,6.23A18.75,18.75,0,0,0,688.54,249.34Z"/><path class="cls-1" d="M734.86,224q11.28-5.33,28.56-5.69V215a26.34,26.34,0,0,0-1.2-8.87,8.39,8.39,0,0,0-4.14-4.75,18.86,18.86,0,0,0-8.34-1.5,32.43,32.43,0,0,0-11,1.75,77,77,0,0,0-9.66,4.25l-3-6.24a33.85,33.85,0,0,1,5.76-3.47,57.74,57.74,0,0,1,9.72-3.84,37.76,37.76,0,0,1,11-1.69q8.52,0,13.5,2.34a14,14,0,0,1,7.14,7.5c1.44,3.45,2.16,8,2.16,13.81v38.51h7.08v5.29c-1.6.4-3.62.79-6.06,1.2a41.39,41.39,0,0,1-6.42.59c-2.24,0-3.76-.34-4.56-1s-1.2-2.18-1.2-4.5v-4a41.9,41.9,0,0,1-8.82,6.59,23.29,23.29,0,0,1-11.82,3q-8.64,0-14.34-5t-5.7-14.34Q723.58,229.38,734.86,224ZM756,249.88a38,38,0,0,0,7.44-4.55V224.68q-13.08,0-19.74,4c-4.44,2.68-6.66,6.17-6.66,10.5s1.06,7.5,3.18,9.54a11.85,11.85,0,0,0,8.58,3.05A17.16,17.16,0,0,0,756,249.88Z"/><circle class="cls-2" cx="150.56" cy="150.17" r="145.93"/><path class="cls-3" d="M269.78,169.94l-7-3-3.51-1.5-.44-.19a2.86,2.86,0,0,1-.36-.16,3.23,3.23,0,0,1-.41-.22,3.28,3.28,0,0,1-.71-.58,3.6,3.6,0,0,1-.86-3.43l2.16-7.26,8.71-29.3a3.83,3.83,0,0,0-4.53-4.83L234.64,126l-1.76.41-.88.2-.48.09a4,4,0,0,1-1.74-.21,3.74,3.74,0,0,1-2.3-2.56l-3.27-14a3.83,3.83,0,0,0-6.6-1.67L198.46,129.8l-4.79,5.38-2.39,2.69-.85.95s0,0,0,0a.39.39,0,0,1-.21-.08c-.09-.09-.06,0-.06-.08s0-.05,0-.1l.17-.87.33-1.77.66-3.54,10.66-56.66a3.78,3.78,0,0,0-.32-2.39,3.82,3.82,0,0,0-5.12-1.77l-17,8.26-1.06.51-.53.26a.51.51,0,0,1-.17.07l-.1,0a2.09,2.09,0,0,1-.85.15,2.29,2.29,0,0,1-1.59-.66c-.09-.11-.19-.22-.27-.34l-.11-.19c-.05-.07-.17-.32-.25-.48l-1.08-2.1-2.17-4.2L154,39.29a3.83,3.83,0,0,0-6.81,0L129.82,72.92l-2.17,4.2-1.09,2.1c-.08.16-.2.41-.24.48l-.12.19a2.88,2.88,0,0,1-.27.34,2.27,2.27,0,0,1-1.58.66,2.14,2.14,0,0,1-.86-.15l-.1,0a.62.62,0,0,1-.16-.07l-.54-.26-1.06-.51-17-8.26a3.77,3.77,0,0,0-2.38-.32,3.84,3.84,0,0,0-3.06,4.48l10.66,56.66.66,3.54.34,1.77.16.87s0,.08,0,.1,0,0-.07.08a.39.39,0,0,1-.21.08s0,0,0,0c.09.12-.49-.53-.85-.95l-2.4-2.69-4.79-5.38L83.5,108.25a3.83,3.83,0,0,0-6.6,1.67l-3.27,14a3.75,3.75,0,0,1-2.29,2.56,4,4,0,0,1-1.75.21l-.48-.09-.88-.2L66.47,126l-28.16-6.52a4,4,0,0,0-2,.06,3.84,3.84,0,0,0-2.58,4.77l8.72,29.3,2.15,7.26a3.58,3.58,0,0,1-.86,3.43,2.86,2.86,0,0,1-.71.58,3.23,3.23,0,0,1-.41.22,2.55,2.55,0,0,1-.35.16l-.44.19-3.51,1.5-7,3a4,4,0,0,0-1.4,1,3.84,3.84,0,0,0,.41,5.41h0c6.74,6,13.5,11.93,20.38,17.8,3.46,2.94,6.88,5.83,10.64,8.71a95.46,95.46,0,0,0,11.91,7.66,86.55,86.55,0,0,0,26.94,9.36,94.85,94.85,0,0,0,28.54.37,126.37,126.37,0,0,0,27.4-7,179.42,179.42,0,0,0,25.34-11.85,277.53,277.53,0,0,0,43.7-31l4.54,4.52a1,1,0,0,0,.7.29h.2a1,1,0,0,0,.73-.61l12.88-31.37a1,1,0,0,0-.2-1.07,1,1,0,0,0-1-.26L209.82,153.1a1,1,0,0,0-.65.72,1,1,0,0,0,.27.94l4.44,4.42a261.57,261.57,0,0,1-39.42,30.26c-14.78,9-30.75,16.24-47.48,19.15a83.64,83.64,0,0,1-25.16.66,76.31,76.31,0,0,1-24.06-7.34,86.47,86.47,0,0,1-11-6.49c-3.48-2.45-7-5.23-10.53-8-5.39-4.25-10.74-8.6-16.07-13l1.22-.52,3.51-1.5.44-.19.51-.23a10.45,10.45,0,0,0,1.28-.68,10.94,10.94,0,0,0,2.23-1.83A11.28,11.28,0,0,0,52,158.79l-2.19-7.4-6.84-23,21.74,5,1.77.41.88.2c.37.08.86.17,1.3.23a11.65,11.65,0,0,0,5.36-.65,11.83,11.83,0,0,0,4.45-3,11.62,11.62,0,0,0,2.55-4.75l1.63-7,14.24,16,4.79,5.39L104.1,143a21.42,21.42,0,0,0,1.61,1.69,7.82,7.82,0,0,0,9.76.3,7.89,7.89,0,0,0,2.29-2.63,7.69,7.69,0,0,0,.9-3.43,8.51,8.51,0,0,0-.13-1.69l-.17-.9-.33-1.78-.67-3.54-9.25-49.18,10.17,4.94,1.07.51.53.26.37.17.44.19a10.11,10.11,0,0,0,3.77.68,10,10,0,0,0,6.91-2.93,10.87,10.87,0,0,0,1.22-1.49c.18-.27.33-.55.49-.83l.3-.57,1.08-2.1,2.17-4.21,13.93-27,13.92,27,2.17,4.21,1.08,2.1.31.57c.16.28.31.56.49.83a10.79,10.79,0,0,0,1.21,1.49,10,10,0,0,0,10.68,2.25l.44-.19.38-.17.53-.26,1.06-.51L193,81.81,183.75,131l-.67,3.54-.33,1.78-.17.9a8.51,8.51,0,0,0-.13,1.69,7.57,7.57,0,0,0,.91,3.43,7.78,7.78,0,0,0,2.29,2.63,8,8,0,0,0,6.62,1.32,7.86,7.86,0,0,0,3.13-1.62A19.63,19.63,0,0,0,197,143l2.39-2.69,4.79-5.39,14.24-16,1.63,7a11.52,11.52,0,0,0,2.56,4.75,11.38,11.38,0,0,0,9.81,3.69c.43-.06.93-.15,1.3-.23l.88-.2,1.76-.41,21.75-5-6.84,23-2.2,7.4A11.29,11.29,0,0,0,254,171.37a10.33,10.33,0,0,0,1.27.68l.52.23.44.19,3.51,1.5,1.23.53-33.64,27.67-9.63,7.92L212.88,214l-2.4,2-1.21,1a13.41,13.41,0,0,0-1.6,1.51,10.11,10.11,0,0,0-2,9.45l1.77,6,1.91,6.41L151,233.91a3,3,0,0,0-.42,0,3.84,3.84,0,0,0-3.84,3.84v32.57a3.84,3.84,0,0,0,7.67,0V242l59.83,6.61a3.92,3.92,0,0,0,1.51-.14,3.84,3.84,0,0,0,2.58-4.77l-3.55-11.94-1.77-6a2.37,2.37,0,0,1,.48-2.24c.05-.12,1.13-1,1.88-1.59l2.4-2,4.82-4,9.63-7.92,38.51-31.67A4,4,0,0,0,271.8,175,3.83,3.83,0,0,0,269.78,169.94Z"/></svg>